<?xml version="1.0" standalone="no"?>
<!DOCTYPE svg PUBLIC "-//W3C//DTD SVG 20010904//EN"
 "http://www.w3.org/TR/2001/REC-SVG-20010904/DTD/svg10.dtd">
<svg version="1.0" xmlns="http://www.w3.org/2000/svg"
 width="2204.000000pt" height="1964.000000pt" viewBox="0 0 2204.000000 1964.000000"
 preserveAspectRatio="xMidYMid meet">

<g transform="translate(0.000000,1964.000000) scale(0.100000,-0.100000)"
fill="#5e5e5e" stroke="none">
<path d="M12455 18665 c-5 -2 -104 -9 -220 -15 -190 -10 -259 -15 -490 -36
-38 -3 -74 -10 -79 -15 -6 -5 -36 -9 -68 -9 -32 0 -58 -4 -58 -10 0 -5 -19
-10 -43 -10 -24 0 -47 -4 -52 -9 -6 -5 -30 -12 -55 -15 -80 -9 -183 -29 -375
-71 -66 -15 -140 -31 -165 -37 -25 -5 -64 -12 -87 -15 -24 -3 -43 -9 -43 -14
0 -5 -18 -9 -39 -9 -22 0 -43 -4 -46 -10 -3 -5 -24 -10 -46 -10 -21 0 -39 -4
-39 -9 0 -5 -17 -11 -37 -15 -90 -13 -113 -19 -113 -27 0 -5 -11 -9 -25 -9
-13 0 -34 -4 -47 -9 -13 -5 -50 -17 -83 -26 -85 -24 -128 -38 -140 -46 -5 -3
-31 -12 -57 -20 -27 -7 -48 -17 -48 -21 0 -4 -13 -8 -30 -8 -16 0 -30 -4 -30
-10 0 -5 -11 -10 -25 -10 -14 0 -25 -4 -25 -8 0 -5 -22 -15 -50 -22 -27 -7
-50 -17 -50 -22 0 -4 -7 -8 -14 -8 -8 0 -49 -16 -92 -35 -42 -19 -83 -35 -90
-35 -8 0 -14 -4 -14 -10 0 -5 -9 -10 -19 -10 -11 0 -23 -4 -26 -10 -3 -5 -15
-10 -26 -10 -10 0 -19 -4 -19 -10 0 -5 -11 -10 -24 -10 -14 0 -28 -4 -31 -10
-3 -5 -15 -10 -26 -10 -10 0 -19 -4 -19 -10 0 -5 -7 -10 -15 -10 -8 0 -23 -4
-33 -9 -9 -5 -55 -26 -102 -46 -47 -21 -102 -46 -123 -56 -22 -11 -45 -19 -53
-19 -8 0 -14 -4 -14 -10 0 -5 -9 -10 -20 -10 -11 0 -20 -4 -20 -10 0 -5 -9
-10 -20 -10 -11 0 -20 -4 -20 -10 0 -5 -9 -10 -19 -10 -11 0 -21 -3 -23 -7 -1
-5 -39 -26 -83 -47 -44 -22 -82 -42 -85 -45 -3 -4 -27 -17 -55 -31 -27 -14
-51 -28 -53 -32 -2 -5 -12 -8 -23 -8 -10 0 -19 -4 -19 -10 0 -5 -9 -10 -20
-10 -11 0 -20 -4 -20 -10 0 -5 -5 -10 -12 -10 -16 0 -192 -91 -196 -102 -2 -4
-12 -8 -23 -8 -10 0 -19 -4 -19 -10 0 -5 -7 -10 -15 -10 -8 0 -15 -4 -15 -10
0 -5 -9 -10 -20 -10 -11 0 -20 -4 -20 -10 0 -5 -9 -10 -19 -10 -11 0 -21 -3
-23 -8 -3 -7 -130 -85 -180 -111 -16 -7 -28 -17 -28 -20 0 -4 -16 -13 -35 -21
-19 -8 -35 -17 -35 -22 0 -4 -7 -8 -15 -8 -8 0 -15 -4 -15 -10 0 -5 -5 -10
-10 -10 -6 0 -16 -5 -23 -10 -7 -6 -37 -26 -67 -45 -30 -19 -60 -39 -67 -45
-7 -5 -17 -10 -23 -10 -5 0 -10 -4 -10 -10 0 -5 -6 -10 -12 -10 -7 0 -26 -11
-42 -25 -16 -14 -33 -25 -37 -25 -4 0 -14 -6 -21 -13 -7 -7 -40 -31 -73 -52
-33 -22 -69 -48 -79 -57 -11 -10 -25 -18 -31 -18 -6 0 -17 -9 -25 -20 -8 -11
-20 -20 -27 -20 -7 0 -13 -3 -13 -7 0 -5 -17 -19 -38 -33 -20 -14 -47 -34 -58
-45 -12 -11 -34 -29 -50 -40 -15 -11 -38 -30 -50 -42 -13 -13 -25 -23 -28 -23
-7 0 -33 -21 -84 -68 -21 -19 -54 -48 -76 -65 -36 -30 -65 -56 -209 -194 -30
-29 -57 -53 -60 -53 -6 0 -222 -219 -294 -299 -32 -35 -83 -90 -113 -121 -30
-32 -69 -75 -87 -97 -18 -22 -50 -58 -73 -81 -22 -23 -40 -46 -40 -50 0 -4 -9
-14 -20 -22 -11 -8 -20 -18 -20 -23 0 -4 -10 -18 -23 -31 -22 -24 -85 -98
-122 -144 -11 -14 -29 -34 -40 -46 -11 -12 -32 -39 -48 -62 -15 -22 -35 -49
-45 -60 -10 -10 -33 -41 -52 -69 -18 -27 -42 -57 -52 -66 -10 -9 -18 -23 -18
-32 0 -8 -3 -17 -8 -19 -4 -1 -30 -34 -57 -73 -27 -38 -53 -71 -57 -73 -4 -2
-8 -11 -8 -19 0 -9 -8 -23 -18 -32 -9 -9 -23 -28 -31 -43 -8 -15 -22 -37 -33
-47 -10 -11 -18 -23 -18 -26 0 -3 -19 -36 -42 -73 -59 -93 -78 -124 -84 -144
-4 -10 -10 -18 -15 -18 -5 0 -9 -9 -9 -20 0 -11 -4 -20 -10 -20 -5 0 -10 -4
-10 -9 0 -9 -63 -118 -80 -138 -5 -7 -10 -19 -10 -28 0 -8 -4 -15 -8 -15 -5 0
-14 -16 -22 -35 -8 -19 -17 -35 -22 -35 -4 0 -8 -9 -8 -20 0 -11 -4 -20 -10
-20 -5 0 -10 -4 -10 -9 0 -4 -25 -53 -55 -108 -30 -56 -55 -108 -55 -117 0 -9
-4 -16 -10 -16 -5 0 -10 -9 -10 -20 0 -11 -4 -20 -10 -20 -5 0 -10 -9 -10 -20
0 -11 -4 -20 -10 -20 -5 0 -10 -7 -10 -15 0 -8 -4 -15 -10 -15 -5 0 -10 -9
-10 -20 0 -11 -4 -20 -10 -20 -5 0 -10 -9 -10 -20 0 -11 -4 -20 -10 -20 -5 0
-10 -9 -10 -20 0 -11 -4 -20 -10 -20 -5 0 -10 -7 -10 -14 0 -8 -11 -36 -25
-62 -14 -26 -25 -53 -25 -60 0 -8 -4 -14 -10 -14 -5 0 -10 -7 -10 -15 0 -8 -9
-30 -20 -50 -11 -20 -20 -42 -20 -50 0 -8 -4 -15 -10 -15 -5 0 -10 -11 -10
-24 0 -14 -4 -28 -10 -31 -5 -3 -10 -15 -10 -26 0 -10 -4 -19 -10 -19 -5 0
-10 -6 -10 -12 0 -13 -104 -289 -121 -320 -5 -10 -9 -25 -9 -33 0 -8 -4 -15
-10 -15 -5 0 -10 -13 -10 -30 0 -16 -4 -30 -10 -30 -5 0 -10 -11 -10 -24 0
-14 -4 -27 -9 -30 -5 -3 -11 -18 -14 -33 -3 -16 -15 -59 -27 -98 -35 -113 -72
-248 -77 -283 -3 -18 -9 -35 -14 -38 -5 -3 -9 -20 -9 -39 0 -19 -4 -37 -10
-40 -5 -3 -10 -22 -10 -41 0 -19 -4 -34 -10 -34 -5 0 -10 -18 -10 -40 0 -22
-4 -40 -10 -40 -5 0 -10 -18 -10 -39 0 -22 -5 -43 -10 -46 -6 -3 -10 -24 -10
-46 0 -21 -4 -39 -9 -39 -5 0 -11 -19 -14 -42 -6 -56 -44 -286 -60 -363 l-12
-60 -140 -7 c-157 -8 -529 -43 -617 -58 -94 -16 -160 -28 -213 -40 -27 -6 -69
-14 -92 -17 -24 -3 -43 -9 -43 -14 0 -5 -16 -9 -35 -9 -19 0 -35 -4 -35 -10 0
-5 -9 -10 -20 -10 -21 0 -155 -43 -250 -80 -30 -12 -65 -24 -78 -27 -12 -3
-25 -9 -28 -14 -3 -5 -14 -9 -25 -9 -10 0 -19 -4 -19 -10 0 -5 -9 -10 -20 -10
-11 0 -20 -4 -20 -10 0 -5 -9 -10 -20 -10 -11 0 -20 -4 -20 -10 0 -5 -6 -10
-14 -10 -16 0 -122 -55 -147 -76 -8 -8 -19 -14 -23 -14 -4 0 -27 -13 -51 -30
-24 -16 -47 -30 -52 -30 -5 0 -15 -9 -23 -20 -8 -11 -21 -20 -29 -20 -7 0 -21
-8 -30 -18 -9 -10 -38 -36 -66 -57 -68 -54 -305 -292 -305 -306 0 -7 -8 -19
-18 -28 -10 -9 -40 -47 -67 -86 -27 -38 -52 -72 -55 -75 -9 -9 -41 -65 -47
-82 -3 -10 -8 -18 -12 -18 -4 0 -13 -16 -21 -35 -8 -19 -17 -35 -22 -35 -4 0
-8 -9 -8 -20 0 -11 -4 -20 -10 -20 -5 0 -10 -4 -10 -10 0 -5 -16 -42 -35 -81
-19 -40 -35 -78 -35 -86 0 -7 -4 -13 -10 -13 -5 0 -10 -11 -10 -24 0 -14 -5
-28 -10 -31 -6 -3 -10 -17 -10 -30 0 -13 -5 -27 -10 -30 -6 -3 -10 -22 -10
-41 0 -19 -4 -34 -10 -34 -5 0 -10 -11 -10 -24 0 -14 -4 -27 -9 -30 -5 -3 -11
-20 -14 -38 -3 -18 -10 -51 -17 -73 -13 -44 -25 -112 -41 -220 -6 -38 -15 -84
-20 -102 -6 -20 -7 -39 -1 -50 5 -10 10 -67 11 -128 1 -60 6 -114 11 -119 6
-6 10 -24 11 -41 1 -39 22 -98 37 -103 8 -2 12 11 12 42 0 25 5 46 10 46 6 0
10 18 10 40 0 22 5 40 10 40 6 0 10 18 10 39 0 22 5 43 10 46 6 3 10 19 10 36
0 16 5 29 10 29 6 0 10 10 10 22 0 23 4 38 46 163 39 115 49 144 57 151 4 4 7
16 7 26 0 10 5 18 10 18 6 0 10 9 10 20 0 11 5 20 10 20 6 0 10 9 10 20 0 11
5 20 10 20 6 0 10 11 10 25 0 14 5 25 10 25 6 0 10 9 10 20 0 11 5 20 10 20 6
0 10 9 10 19 0 11 4 21 8 23 5 2 26 37 48 78 21 41 42 77 46 78 5 2 8 10 8 18
0 8 4 14 9 14 5 0 14 14 21 30 7 17 16 30 21 30 5 0 9 6 9 13 0 7 8 22 18 33
9 10 30 37 47 59 16 22 35 46 42 53 7 7 13 17 13 20 0 4 25 34 56 67 30 33 65
72 77 87 12 15 25 28 30 28 4 0 27 19 50 43 53 52 103 93 139 115 16 9 28 20
28 24 0 4 7 8 15 8 8 0 15 4 15 8 0 5 12 15 28 23 15 8 29 16 32 19 10 10 68
42 150 83 47 23 87 45 88 50 2 4 15 7 28 7 13 0 24 5 24 10 0 6 9 10 19 10 11
0 23 5 26 10 3 6 15 10 25 10 10 0 20 4 22 8 2 4 55 25 118 45 188 60 289 85
378 94 28 3 52 9 52 14 0 5 28 9 63 9 35 0 67 4 72 9 6 5 48 12 95 15 78 5
192 13 441 32 53 4 109 4 124 0 24 -6 26 -10 20 -39 -7 -36 -21 -138 -35 -267
-45 -404 -35 -1188 21 -1755 5 -55 12 -138 15 -185 2 -47 9 -94 14 -105 5 -11
11 -45 14 -75 3 -30 10 -81 15 -112 13 -71 27 -145 40 -218 5 -30 17 -91 26
-135 9 -44 21 -105 26 -135 5 -30 14 -77 19 -105 6 -27 13 -70 16 -95 3 -25 9
-54 14 -65 5 -11 11 -40 15 -65 12 -93 17 -120 26 -126 5 -3 9 -21 9 -40 0
-19 4 -34 9 -34 5 0 11 -17 14 -37 5 -41 37 -169 68 -273 10 -36 19 -76 19
-88 0 -12 5 -22 10 -22 6 0 10 -16 10 -35 0 -19 5 -35 10 -35 6 0 10 -16 10
-35 0 -19 5 -35 10 -35 6 0 10 -8 10 -17 0 -16 31 -115 50 -158 5 -11 17 -45
28 -75 38 -106 57 -155 63 -160 3 -3 12 -26 20 -52 7 -27 17 -48 21 -48 4 0 8
-11 8 -25 0 -14 5 -25 10 -25 6 0 10 -6 10 -13 0 -8 6 -27 14 -43 19 -39 38
-85 72 -169 15 -38 31 -74 36 -79 4 -6 8 -18 8 -28 0 -10 5 -18 10 -18 6 0 10
-9 10 -19 0 -11 5 -23 10 -26 6 -3 10 -15 10 -26 0 -10 5 -19 10 -19 6 0 10
-9 10 -20 0 -11 5 -20 10 -20 6 0 10 -6 10 -14 0 -8 9 -31 19 -53 11 -21 41
-83 67 -138 26 -55 51 -101 56 -103 4 -2 8 -12 8 -23 0 -10 5 -19 10 -19 6 0
10 -7 10 -15 0 -8 5 -15 10 -15 6 0 10 -9 10 -20 0 -11 5 -20 10 -20 6 0 10
-9 10 -20 0 -11 5 -20 10 -20 6 0 10 -4 10 -9 0 -9 63 -118 80 -138 5 -7 10
-19 10 -28 0 -8 5 -15 10 -15 6 0 10 -7 10 -15 0 -8 5 -15 10 -15 6 0 10 -7
10 -15 0 -8 5 -15 10 -15 6 0 10 -7 10 -15 0 -8 5 -15 10 -15 6 0 10 -9 10
-19 0 -11 4 -21 9 -23 4 -1 34 -43 66 -93 31 -49 61 -92 66 -93 5 -2 9 -11 9
-21 0 -9 9 -23 20 -31 11 -8 20 -20 20 -27 0 -7 3 -13 8 -13 4 0 20 -21 37
-48 16 -26 40 -57 52 -70 13 -13 23 -27 23 -32 0 -5 11 -20 25 -34 14 -14 25
-30 25 -36 0 -5 3 -10 8 -10 4 0 18 -17 32 -38 14 -20 34 -47 45 -58 11 -12
29 -34 40 -49 11 -16 25 -33 30 -39 6 -6 22 -27 35 -46 13 -19 31 -42 40 -50
8 -8 33 -37 55 -65 21 -27 42 -52 45 -55 3 -3 17 -21 30 -40 13 -19 36 -46 50
-60 14 -14 48 -52 75 -85 28 -33 68 -78 90 -101 22 -22 67 -71 100 -108 61
-69 121 -129 208 -208 27 -23 78 -71 114 -106 36 -34 84 -77 106 -95 22 -17
58 -50 81 -72 23 -22 63 -58 91 -80 27 -22 67 -57 87 -78 20 -20 41 -37 46
-37 6 0 12 -4 14 -8 2 -4 37 -35 78 -67 41 -33 82 -67 90 -75 8 -9 31 -27 50
-40 34 -24 59 -43 84 -65 6 -5 31 -23 56 -40 25 -16 53 -37 63 -46 9 -9 30
-22 45 -30 15 -8 37 -24 50 -37 13 -12 27 -22 32 -22 5 0 15 -6 22 -13 7 -7
40 -31 73 -52 33 -22 69 -48 79 -57 11 -10 26 -18 33 -18 7 0 13 -4 13 -10 0
-5 7 -10 15 -10 8 0 15 -4 15 -10 0 -5 7 -10 15 -10 8 0 15 -4 15 -10 0 -5 7
-10 15 -10 8 0 15 -4 15 -8 0 -5 15 -16 33 -25 17 -9 61 -35 96 -57 34 -22 67
-40 72 -40 5 0 9 -4 9 -10 0 -5 6 -10 13 -10 7 0 23 -9 35 -20 12 -11 28 -20
37 -20 8 0 15 -3 15 -8 0 -4 34 -25 75 -47 41 -22 75 -43 75 -47 0 -5 9 -8 20
-8 11 0 20 -4 20 -8 0 -5 16 -14 35 -22 19 -8 35 -17 35 -22 0 -4 9 -8 20 -8
11 0 20 -4 20 -10 0 -5 9 -10 20 -10 11 0 20 -4 20 -10 0 -5 9 -10 19 -10 11
0 21 -3 23 -7 4 -11 115 -63 133 -63 8 0 15 -4 15 -10 0 -5 9 -10 20 -10 11 0
20 -4 20 -10 0 -5 9 -10 19 -10 11 0 21 -4 23 -8 5 -13 281 -142 304 -142 8 0
14 -4 14 -10 0 -5 9 -10 20 -10 11 0 20 -4 20 -10 0 -5 9 -10 19 -10 11 0 23
-4 26 -10 3 -5 15 -10 26 -10 10 0 19 -4 19 -10 0 -5 6 -10 13 -10 8 0 27 -6
43 -14 41 -19 87 -39 214 -91 36 -15 73 -31 82 -36 10 -5 25 -9 33 -9 8 0 15
-4 15 -10 0 -5 11 -10 24 -10 14 0 28 -4 31 -10 3 -5 15 -10 26 -10 10 0 19
-4 19 -10 0 -5 7 -10 15 -10 8 0 23 -4 33 -9 52 -26 269 -101 294 -101 10 0
18 -4 18 -10 0 -5 14 -10 30 -10 17 0 30 -4 30 -10 0 -5 11 -10 24 -10 14 0
28 -4 31 -10 3 -5 17 -10 31 -10 13 0 24 -4 24 -10 0 -5 14 -10 30 -10 17 0
38 -4 48 -9 9 -5 37 -14 62 -21 25 -6 59 -15 75 -20 17 -5 82 -20 145 -35 63
-14 125 -31 138 -36 13 -5 38 -9 55 -9 18 0 37 -4 43 -9 9 -9 55 -17 152 -27
28 -3 52 -10 52 -15 0 -5 24 -9 54 -9 30 0 58 -4 61 -10 3 -5 28 -10 54 -10
26 0 51 -4 57 -9 5 -5 38 -12 74 -15 36 -3 106 -10 155 -16 316 -33 530 -43
935 -44 334 -1 470 3 635 17 284 25 434 37 535 43 47 3 94 9 105 14 11 5 50
12 88 15 37 3 97 7 135 10 37 3 76 10 87 15 11 5 49 11 85 14 61 5 101 12 210
35 25 5 70 14 100 20 30 5 89 17 130 26 41 9 92 19 113 22 20 3 40 9 43 14 3
5 18 9 34 9 16 0 32 5 35 10 3 5 19 10 35 10 16 0 32 4 35 10 3 5 22 10 41 10
19 0 34 5 34 10 0 6 16 10 35 10 19 0 35 5 35 10 0 6 11 10 25 10 13 0 34 4
47 9 13 5 50 17 83 26 33 9 92 28 130 42 39 14 82 28 98 30 15 3 30 9 33 14 3
5 16 9 29 9 13 0 27 5 30 10 3 6 17 10 31 10 13 0 24 5 24 10 0 6 7 10 15 10
8 0 23 4 33 9 9 5 28 13 42 19 78 31 239 101 262 113 10 5 25 9 33 9 8 0 15 5
15 10 0 6 9 10 20 10 11 0 20 5 20 10 0 6 11 10 25 10 14 0 25 5 25 10 0 6 11
10 25 10 14 0 25 5 25 10 0 6 9 10 19 10 11 0 23 5 26 10 3 6 15 10 26 10 10
0 19 5 19 10 0 6 6 10 13 10 7 0 35 11 63 23 27 13 64 30 82 38 17 8 32 17 32
21 0 5 9 8 20 8 11 0 20 5 20 10 0 6 9 10 20 10 11 0 20 5 20 10 0 6 9 10 20
10 11 0 20 3 20 8 0 4 15 13 33 21 62 27 162 78 207 105 25 15 53 29 63 33 9
3 17 9 17 14 0 5 7 9 15 9 8 0 15 5 15 10 0 6 7 10 15 10 8 0 15 3 15 8 0 4
28 25 63 47 34 22 64 42 67 45 3 3 17 11 33 19 15 8 27 18 27 23 0 4 7 8 15 8
8 0 15 5 15 10 0 6 9 10 20 10 11 0 20 4 20 8 0 5 12 15 28 23 15 8 34 21 42
30 8 9 53 42 100 73 47 31 95 65 107 76 12 11 27 20 32 20 5 0 11 3 13 8 2 4
23 23 48 42 25 19 51 39 58 45 7 5 28 25 47 43 19 17 37 32 40 32 3 0 20 14
38 30 18 17 47 40 64 53 18 12 33 27 33 32 0 6 12 19 27 30 33 24 322 314 378
379 47 54 49 57 95 116 47 61 61 77 93 112 15 17 27 33 27 38 0 4 37 46 83 93
45 48 109 126 142 173 33 48 65 92 70 98 6 6 16 23 24 39 8 15 18 27 23 27 4
0 8 5 8 11 0 6 13 30 30 54 16 24 30 48 30 53 0 6 4 12 8 14 11 4 102 178 102
194 0 8 3 14 8 14 8 0 32 48 32 66 0 7 3 14 8 16 10 4 102 196 102 213 0 8 5
17 10 20 5 3 10 15 10 26 0 10 5 19 10 19 6 0 10 9 10 20 0 11 5 20 10 20 6 0
10 9 10 20 0 11 5 20 10 20 6 0 10 9 10 20 0 11 5 20 10 20 6 0 10 11 10 25 0
14 4 33 9 43 36 68 101 258 101 296 0 14 4 27 9 30 5 3 11 23 15 43 3 21 8 56
11 78 4 22 10 49 15 60 13 31 29 149 46 341 7 86 1 101 -34 90 -18 -6 -67
-102 -102 -201 -16 -47 -60 -148 -81 -187 -5 -10 -9 -26 -9 -37 0 -11 -3 -21
-8 -23 -4 -1 -26 -41 -50 -88 -56 -114 -95 -184 -104 -188 -5 -2 -8 -12 -8
-23 0 -10 -4 -19 -10 -19 -5 0 -10 -9 -10 -20 0 -11 -4 -20 -10 -20 -5 0 -10
-7 -10 -15 0 -8 -4 -15 -10 -15 -5 0 -10 -9 -10 -20 0 -11 -4 -20 -10 -20 -5
0 -10 -9 -10 -20 0 -11 -4 -20 -8 -20 -5 0 -16 -15 -25 -32 -22 -42 -38 -67
-59 -92 -10 -11 -18 -26 -18 -33 0 -7 -4 -13 -8 -13 -5 0 -15 -12 -23 -27 -8
-16 -18 -33 -24 -39 -5 -6 -28 -37 -50 -68 -22 -31 -50 -69 -62 -84 -13 -15
-23 -31 -23 -35 0 -4 -15 -23 -32 -41 -18 -19 -46 -50 -63 -71 -55 -68 -447
-455 -461 -455 -2 0 -24 -19 -49 -42 -24 -24 -65 -61 -90 -83 -25 -22 -59 -52
-75 -66 -15 -14 -42 -36 -60 -50 -18 -13 -46 -36 -64 -50 -17 -14 -42 -34 -55
-45 -13 -10 -34 -29 -47 -42 -13 -12 -27 -22 -31 -22 -4 0 -24 -14 -43 -30
-19 -17 -60 -47 -90 -67 -30 -21 -62 -45 -70 -53 -8 -8 -27 -21 -42 -29 -16
-8 -28 -18 -28 -23 0 -4 -7 -8 -15 -8 -8 0 -15 -3 -15 -7 0 -5 -21 -21 -48
-38 -26 -16 -56 -38 -66 -47 -11 -10 -26 -18 -33 -18 -7 0 -13 -4 -13 -10 0
-5 -7 -10 -15 -10 -8 0 -15 -4 -15 -10 0 -5 -7 -10 -15 -10 -8 0 -15 -4 -15
-10 0 -5 -7 -10 -15 -10 -8 0 -15 -4 -15 -8 0 -5 -11 -14 -25 -20 -14 -7 -31
-16 -38 -22 -25 -21 -88 -60 -97 -60 -6 0 -10 -4 -10 -10 0 -5 -6 -10 -13 -10
-7 0 -23 -9 -35 -20 -12 -11 -28 -20 -37 -20 -8 0 -15 -4 -15 -10 0 -5 -6 -10
-14 -10 -8 0 -16 -3 -18 -7 -1 -5 -28 -21 -58 -37 -30 -16 -57 -32 -60 -36 -3
-4 -43 -27 -90 -51 -47 -24 -86 -47 -88 -51 -2 -5 -10 -8 -18 -8 -8 0 -14 -4
-14 -10 0 -5 -9 -10 -20 -10 -11 0 -20 -4 -20 -10 0 -5 -5 -10 -11 -10 -15 0
-283 -133 -287 -142 -2 -5 -10 -8 -17 -8 -7 0 -52 -18 -99 -40 -47 -22 -88
-40 -92 -40 -3 0 -38 -14 -77 -31 -113 -49 -130 -56 -167 -69 -43 -15 -79 -30
-102 -41 -10 -5 -27 -9 -38 -9 -11 0 -20 -4 -20 -10 0 -5 -9 -10 -20 -10 -11
0 -28 -4 -38 -9 -9 -5 -69 -26 -132 -46 -63 -21 -123 -41 -132 -46 -10 -5 -29
-9 -42 -9 -14 0 -28 -5 -31 -10 -3 -6 -19 -10 -36 -10 -16 0 -29 -4 -29 -10 0
-5 -13 -10 -29 -10 -17 0 -33 -4 -36 -10 -3 -5 -16 -10 -27 -10 -20 0 -68 -13
-113 -31 -11 -4 -31 -10 -45 -12 -32 -6 -185 -44 -225 -56 -16 -5 -61 -14
-100 -21 -38 -7 -78 -16 -87 -21 -10 -5 -36 -9 -58 -9 -22 0 -40 -4 -40 -10 0
-5 -24 -10 -53 -10 -29 0 -57 -4 -63 -9 -5 -5 -34 -12 -64 -15 -30 -3 -82 -9
-115 -15 -737 -120 -1441 -138 -2145 -56 -143 17 -201 25 -385 56 -33 5 -82
12 -110 15 -27 3 -54 10 -59 15 -6 5 -32 9 -58 9 -26 0 -48 5 -48 10 0 6 -20
10 -44 10 -25 0 -48 5 -51 10 -3 6 -18 10 -32 10 -15 0 -40 4 -57 9 -17 5 -49
14 -71 20 -84 22 -221 63 -237 72 -10 5 -28 9 -41 9 -13 0 -27 3 -31 7 -9 10
-78 33 -98 33 -10 0 -18 5 -18 10 0 6 -9 10 -20 10 -11 0 -28 4 -38 9 -35 19
-247 101 -259 101 -7 0 -13 5 -13 10 0 6 -9 10 -20 10 -11 0 -20 5 -20 10 0 6
-11 10 -25 10 -14 0 -25 5 -25 10 0 6 -9 10 -19 10 -11 0 -23 5 -26 10 -3 6
-17 10 -31 10 -13 0 -24 5 -24 10 0 6 -9 10 -20 10 -11 0 -20 5 -20 10 0 6 -7
10 -15 10 -9 0 -45 16 -81 35 -35 19 -71 35 -79 35 -8 0 -15 5 -15 10 0 6 -9
10 -20 10 -11 0 -20 5 -20 10 0 6 -7 10 -15 10 -8 0 -15 5 -15 10 0 6 -9 10
-20 10 -11 0 -20 5 -20 10 0 6 -9 10 -20 10 -11 0 -20 5 -20 10 0 6 -9 10 -19
10 -11 0 -21 3 -23 8 -1 4 -75 43 -163 86 -88 44 -162 82 -165 86 -3 4 -20 13
-37 21 -18 8 -33 17 -33 21 0 5 -4 8 -9 8 -13 0 -135 73 -139 82 -2 5 -12 8
-23 8 -10 0 -19 5 -19 10 0 6 -6 10 -13 10 -7 0 -22 8 -33 18 -10 9 -32 24
-49 32 -16 8 -32 17 -35 20 -12 12 -161 100 -170 100 -6 0 -10 5 -10 10 0 6
-7 10 -15 10 -8 0 -15 5 -15 10 0 6 -6 10 -13 10 -7 0 -22 8 -33 18 -10 9 -31
23 -46 31 -16 8 -28 18 -28 23 0 4 -4 8 -10 8 -11 0 -77 42 -105 67 -11 10
-32 24 -48 32 -15 8 -27 18 -27 23 0 4 -5 8 -11 8 -7 0 -19 8 -28 18 -9 11
-27 25 -40 32 -14 7 -30 17 -35 22 -6 4 -22 18 -36 29 -14 11 -37 28 -52 37
-16 9 -28 20 -28 24 0 4 -5 8 -11 8 -7 0 -19 8 -28 18 -9 10 -32 29 -51 42
-19 13 -37 27 -40 30 -3 3 -23 18 -45 35 -22 16 -42 32 -45 35 -3 3 -21 17
-40 30 -19 14 -49 38 -66 55 -17 16 -48 44 -69 60 -21 17 -60 50 -86 75 -26
25 -64 60 -86 78 -175 151 -648 622 -758 755 -6 6 -36 44 -68 82 -32 39 -68
81 -80 95 -12 14 -49 61 -82 105 -33 44 -68 87 -77 96 -10 9 -18 22 -18 29 0
7 -8 20 -18 29 -10 9 -34 38 -53 66 -18 27 -38 55 -44 62 -24 30 -31 40 -44
66 -8 15 -18 27 -23 27 -4 0 -8 7 -8 15 0 8 -4 15 -10 15 -5 0 -10 7 -10 15 0
8 -4 15 -10 15 -5 0 -10 7 -10 15 0 8 -4 15 -9 15 -5 0 -13 9 -16 20 -3 11
-12 26 -18 32 -7 7 -30 41 -52 75 -22 35 -43 63 -47 63 -5 0 -8 7 -8 15 0 9
-9 25 -20 37 -11 12 -20 28 -20 35 0 7 -4 13 -10 13 -5 0 -10 7 -10 15 0 8 -3
15 -7 15 -5 0 -21 27 -38 60 -16 33 -32 60 -35 60 -3 0 -17 22 -31 50 -13 27
-27 50 -31 50 -5 0 -8 7 -8 15 0 8 -4 15 -10 15 -5 0 -10 9 -10 20 0 11 -4 20
-10 20 -5 0 -10 9 -10 20 0 11 -3 20 -7 20 -5 0 -35 53 -68 118 -33 64 -63
119 -67 120 -5 2 -8 12 -8 23 0 10 -4 19 -10 19 -5 0 -10 9 -10 20 0 11 -4 20
-10 20 -5 0 -10 9 -10 20 0 11 -4 20 -10 20 -5 0 -10 6 -10 14 0 8 -9 31 -20
53 -32 61 -70 154 -70 169 0 8 -4 14 -10 14 -5 0 -10 9 -10 19 0 11 -4 23 -10
26 -5 3 -10 15 -10 26 0 10 -4 19 -10 19 -5 0 -10 14 -10 30 0 17 -4 30 -10
30 -5 0 -10 7 -10 15 0 8 -8 34 -19 58 -10 23 -40 110 -66 192 -26 83 -51 158
-56 167 -5 10 -9 31 -9 48 0 16 -4 30 -10 30 -5 0 -10 15 -10 34 0 19 -4 38
-10 41 -5 3 -10 19 -10 36 0 16 -4 29 -10 29 -5 0 -10 14 -10 30 0 17 -4 38
-10 48 -18 33 -103 422 -117 532 -3 25 -9 49 -14 55 -5 5 -9 33 -9 62 0 29 -4
53 -9 53 -5 0 -12 26 -15 58 -3 31 -10 86 -15 122 -49 312 -50 326 -82 705
-20 233 -18 934 4 1270 10 154 22 314 27 355 6 41 10 100 10 131 0 88 -7 86
235 77 197 -8 272 -11 715 -37 372 -22 542 -32 720 -40 102 -5 295 -15 430
-22 284 -16 1379 -19 1746 -5 l241 9 6 -189 c4 -104 11 -220 17 -259 19 -126
29 -179 40 -225 6 -25 14 -62 17 -83 3 -20 9 -40 14 -43 5 -3 9 -21 9 -40 0
-19 5 -34 10 -34 6 0 10 -13 10 -30 0 -16 5 -30 10 -30 6 0 10 -9 10 -20 0
-11 4 -28 9 -38 10 -19 17 -37 57 -137 15 -38 31 -74 36 -79 4 -6 8 -18 8 -28
0 -10 5 -18 10 -18 6 0 10 -9 10 -20 0 -11 5 -20 10 -20 6 0 10 -9 10 -20 0
-11 5 -20 10 -20 6 0 10 -9 10 -20 0 -11 5 -20 10 -20 6 0 10 -9 10 -20 0 -11
3 -20 8 -20 4 0 14 -15 22 -32 7 -18 18 -37 22 -43 16 -19 78 -127 78 -136 0
-5 4 -9 8 -9 5 0 15 -12 23 -27 8 -16 19 -33 24 -39 6 -6 28 -37 50 -69 22
-31 49 -67 60 -79 11 -11 31 -37 45 -56 30 -43 218 -231 285 -285 28 -22 59
-48 69 -57 11 -10 24 -18 28 -18 5 0 20 -11 34 -25 14 -14 29 -25 34 -25 5 0
15 -6 22 -13 17 -17 136 -87 148 -87 4 0 10 -3 12 -8 2 -4 35 -23 73 -42 39
-19 72 -38 73 -42 2 -5 9 -8 16 -8 7 0 57 -18 112 -40 54 -22 114 -43 132 -46
18 -3 35 -10 38 -15 3 -5 18 -9 35 -9 16 0 29 -4 29 -10 0 -5 15 -10 34 -10
19 0 38 -4 41 -10 3 -5 24 -10 46 -10 21 0 39 -4 39 -9 0 -5 21 -12 48 -15 26
-3 76 -10 112 -16 217 -34 518 -44 778 -26 72 5 122 5 122 0 -1 -10 -77 -116
-108 -150 -11 -11 -25 -31 -32 -43 -12 -23 -23 -37 -72 -94 -15 -18 -28 -35
-28 -38 0 -3 -11 -19 -25 -35 -15 -16 -33 -41 -43 -56 -9 -16 -20 -28 -24 -28
-4 0 -8 -7 -8 -15 0 -8 -4 -15 -10 -15 -5 0 -10 -5 -10 -11 0 -7 -8 -19 -18
-28 -10 -9 -29 -32 -42 -51 -13 -19 -27 -37 -30 -40 -3 -3 -18 -23 -35 -45
-16 -22 -37 -49 -47 -59 -10 -11 -18 -24 -18 -28 0 -5 -10 -19 -22 -32 -13
-12 -41 -49 -63 -80 -22 -32 -50 -68 -61 -80 -12 -12 -27 -33 -33 -45 -13 -23
-24 -37 -73 -94 -15 -18 -28 -35 -28 -39 0 -4 -6 -13 -13 -20 -7 -7 -26 -31
-42 -53 -37 -50 -57 -74 -72 -90 -7 -8 -13 -16 -13 -20 0 -3 -9 -16 -20 -28
-11 -12 -43 -51 -70 -87 -28 -36 -61 -77 -75 -93 -14 -15 -25 -32 -25 -38 0
-6 -12 -23 -28 -37 -15 -15 -40 -45 -57 -67 -16 -22 -39 -50 -50 -62 -11 -12
-26 -29 -33 -38 -11 -13 -25 -15 -75 -9 -34 3 -66 10 -72 15 -5 5 -31 9 -57 9
-26 0 -48 5 -48 10 0 6 -25 10 -55 10 -30 0 -55 4 -55 9 0 5 -30 11 -67 15
-38 3 -102 10 -143 15 -202 25 -459 34 -647 22 -103 -6 -217 -16 -253 -22 -36
-5 -85 -12 -110 -15 -25 -3 -49 -10 -55 -15 -5 -5 -24 -9 -42 -9 -18 0 -33 -4
-33 -10 0 -5 -18 -10 -40 -10 -22 0 -40 -4 -40 -10 0 -5 -13 -10 -30 -10 -16
0 -30 -4 -30 -10 0 -5 -8 -10 -18 -10 -33 0 -273 -104 -280 -122 -2 -4 -12 -8
-23 -8 -10 0 -19 -4 -19 -10 0 -5 -9 -10 -19 -10 -11 0 -21 -4 -23 -8 -1 -5
-30 -27 -63 -49 -33 -22 -71 -50 -84 -62 -13 -12 -27 -21 -31 -21 -6 0 -29
-23 -147 -146 -18 -18 -33 -38 -33 -44 0 -5 -4 -10 -8 -10 -5 0 -15 -12 -23
-28 -8 -15 -16 -29 -19 -32 -28 -27 -120 -207 -120 -234 0 -9 -4 -16 -10 -16
-5 0 -10 -11 -10 -25 0 -14 -4 -25 -9 -25 -5 0 -11 -15 -14 -33 -2 -17 -11
-59 -20 -92 -40 -160 -46 -240 -26 -351 12 -68 50 -187 61 -192 5 -2 8 -12 8
-23 0 -10 5 -19 10 -19 6 0 10 -4 10 -10 0 -24 151 -180 175 -180 8 0 15 -4
15 -9 0 -11 133 -81 154 -81 9 0 16 -4 16 -10 0 -5 14 -10 30 -10 17 0 30 -4
30 -10 0 -5 15 -10 33 -10 18 0 37 -4 43 -9 15 -15 99 -23 298 -27 124 -3 193
-1 200 6 5 5 36 10 68 10 32 0 58 4 58 10 0 6 14 10 32 10 17 0 45 4 62 9 204
62 273 85 280 92 6 5 16 9 23 9 8 0 33 9 55 20 23 11 48 20 55 20 7 0 13 5 13
10 0 6 6 10 14 10 8 0 39 13 68 29 29 15 94 50 143 76 50 26 92 52 93 56 2 5
9 9 16 9 7 0 21 8 32 18 11 9 32 24 46 32 14 8 36 23 49 32 13 10 49 34 79 54
30 21 63 46 74 56 11 10 24 18 28 18 5 0 24 15 42 33 19 17 43 39 54 47 25 19
122 101 138 118 7 6 15 12 18 12 9 0 394 390 400 406 6 16 91 20 101 4 3 -5
17 -10 30 -10 13 0 27 -4 30 -10 3 -6 19 -10 36 -10 16 0 29 -4 29 -10 0 -5
13 -10 28 -10 16 0 32 -3 36 -7 7 -7 62 -23 263 -77 68 -18 126 -35 129 -39 4
-4 22 -7 41 -7 18 0 33 -4 33 -10 0 -5 18 -10 40 -10 22 0 40 -4 40 -10 0 -5
18 -10 39 -10 22 0 43 -4 46 -10 3 -5 24 -10 46 -10 21 0 39 -4 39 -9 0 -5 21
-11 48 -14 26 -3 70 -10 97 -15 28 -5 118 -22 200 -37 83 -15 170 -32 195 -37
86 -18 155 -29 208 -35 28 -2 52 -9 52 -14 0 -5 27 -9 60 -9 33 0 60 -4 60 -9
0 -5 30 -12 68 -15 37 -3 103 -10 147 -15 44 -5 132 -14 195 -20 63 -5 144
-15 180 -22 98 -17 1092 -18 1240 -1 63 7 162 18 220 24 58 5 141 14 185 19
44 5 110 12 148 15 37 3 67 10 67 15 0 5 34 9 75 9 41 0 75 4 75 9 0 5 30 12
68 14 78 6 193 24 327 52 17 3 91 17 165 31 133 25 185 36 246 55 17 5 40 9
52 9 11 0 24 5 27 10 3 6 16 10 27 10 23 0 81 17 110 31 10 5 27 9 38 9 11 0
20 5 20 10 0 6 9 10 20 10 11 0 28 4 38 10 9 5 53 21 97 36 44 14 85 29 90 34
6 4 31 13 58 21 26 7 47 17 47 21 0 4 11 8 25 8 14 0 25 5 25 10 0 6 11 10 24
10 14 0 28 5 31 10 3 6 15 10 26 10 10 0 19 3 19 8 0 4 18 13 39 19 22 7 81
33 132 58 50 25 98 45 105 45 8 0 14 5 14 10 0 6 9 10 19 10 11 0 21 3 23 8 2
6 168 94 255 136 13 6 23 14 23 19 0 4 9 7 20 7 11 0 20 5 20 10 0 6 7 10 15
10 8 0 15 5 15 10 0 6 9 10 20 10 11 0 20 4 20 9 0 5 14 14 30 21 17 7 30 16
30 21 0 5 4 9 10 9 5 0 34 16 64 35 30 19 58 35 61 35 3 0 15 9 27 20 12 11
28 20 35 20 7 0 13 5 13 10 0 6 7 10 15 10 8 0 15 5 15 10 0 6 6 10 14 10 8 0
16 4 18 8 2 5 26 23 53 42 28 19 55 38 60 42 6 5 21 18 35 29 14 11 37 28 53
37 15 9 27 20 27 24 0 4 5 8 10 8 6 0 30 19 53 42 24 24 69 66 101 93 32 28
103 94 159 148 56 53 102 97 103 97 2 0 117 118 249 255 48 50 104 110 124
135 20 24 50 59 66 76 17 17 44 48 60 69 17 21 39 48 50 59 11 12 31 37 45 56
13 19 32 42 42 51 10 9 18 19 18 23 0 4 11 18 25 32 14 14 25 29 25 33 0 7 11
22 50 68 5 7 10 17 10 23 0 5 5 10 10 10 6 0 10 7 10 15 0 8 5 15 10 15 6 0
10 7 10 15 0 8 4 15 8 15 5 0 15 12 23 28 8 15 22 34 31 43 10 9 18 20 18 24
0 4 20 36 45 71 25 34 45 66 45 71 0 5 9 15 20 23 11 8 20 22 20 31 0 10 4 19
8 21 5 2 23 26 42 53 18 28 37 52 40 55 4 3 20 30 36 60 16 30 32 57 37 58 4
2 7 10 7 18 0 8 5 14 10 14 6 0 10 9 10 20 0 11 4 20 9 20 5 0 11 8 14 18 6
18 38 74 48 82 3 3 14 24 24 48 11 23 22 42 27 42 4 0 8 9 8 20 0 11 4 20 8
20 5 0 14 16 22 35 8 19 17 35 22 35 4 0 8 9 8 20 0 11 5 20 10 20 6 0 10 9
10 20 0 11 5 20 10 20 6 0 10 9 10 20 0 11 5 20 10 20 6 0 10 9 10 20 0 11 5
20 10 20 6 0 10 4 10 10 0 5 20 51 45 101 25 51 45 98 45 105 0 8 5 14 10 14
6 0 10 9 10 20 0 11 5 20 10 20 6 0 10 11 10 25 0 14 5 25 10 25 6 0 10 9 10
20 0 11 5 20 10 20 6 0 10 5 10 12 0 16 78 226 101 270 5 10 9 27 9 37 0 11 5
23 10 26 6 3 10 17 10 31 0 13 5 24 10 24 6 0 10 13 10 29 0 17 5 33 10 36 6
3 10 21 10 40 0 19 4 36 9 39 4 3 11 22 14 43 3 21 18 81 33 133 28 101 39
147 49 195 4 17 10 39 15 50 10 24 20 65 27 118 3 20 9 40 14 43 5 3 9 21 9
40 0 19 5 34 10 34 6 0 10 20 10 44 0 25 5 48 10 51 6 3 10 30 10 60 0 30 5
57 10 60 6 3 10 26 10 50 0 24 4 66 9 92 6 26 17 109 26 183 9 74 24 178 33
230 14 80 17 162 17 530 -1 296 -5 461 -13 515 -7 44 -17 127 -22 185 -5 58
-16 137 -25 175 -9 39 -19 91 -22 118 -3 26 -10 50 -14 53 -5 3 -9 27 -9 55 0
27 -4 49 -10 49 -5 0 -10 22 -10 49 0 28 -4 53 -10 56 -5 3 -10 28 -10 55 0
27 -4 52 -10 55 -5 3 -10 19 -10 36 0 16 -4 37 -9 47 -5 9 -14 35 -19 57 -6
22 -20 74 -30 115 -24 89 -54 174 -64 178 -5 2 -8 12 -8 22 0 10 -4 22 -10 25
-5 3 -10 17 -10 31 0 13 -4 24 -10 24 -5 0 -10 13 -10 29 0 16 -4 31 -8 33
-10 4 -57 111 -81 184 -47 142 -77 221 -91 234 -11 11 -44 92 -61 150 -12 41
-49 132 -85 204 -8 16 -14 35 -14 43 0 7 -4 13 -10 13 -5 0 -10 9 -10 19 0 11
-4 23 -10 26 -5 3 -10 15 -10 26 0 10 -4 19 -10 19 -5 0 -10 9 -10 19 0 11 -3
21 -7 23 -5 2 -19 23 -32 48 -14 25 -27 47 -31 50 -4 3 -19 29 -35 58 -15 28
-32 52 -37 52 -4 0 -8 8 -8 18 0 10 -9 24 -20 32 -11 8 -20 22 -20 32 0 10 -3
18 -7 18 -5 0 -26 28 -48 63 -22 34 -45 68 -52 75 -7 7 -20 26 -30 42 -9 17
-21 30 -25 30 -4 0 -8 7 -8 15 0 8 -4 15 -8 15 -5 0 -15 12 -23 28 -8 15 -23
37 -34 49 -11 11 -40 51 -65 87 -25 36 -48 65 -52 66 -5 0 -8 7 -8 15 0 8 -4
15 -10 15 -5 0 -10 5 -10 10 0 6 -10 22 -22 35 -13 13 -41 49 -63 81 -22 31
-45 62 -50 68 -6 6 -22 27 -35 46 -13 19 -32 42 -42 51 -10 9 -18 19 -18 23 0
4 -10 17 -22 30 -13 13 -41 45 -63 71 -124 148 -418 451 -640 660 -64 61 -141
133 -170 160 -29 28 -67 61 -86 75 -18 14 -43 35 -55 48 -13 12 -27 22 -31 22
-5 0 -15 9 -23 20 -8 11 -19 20 -25 20 -5 0 -22 10 -37 23 -15 13 -61 50 -103
83 -42 32 -89 69 -103 81 -15 13 -33 23 -39 23 -7 0 -13 4 -13 8 0 5 -24 22
-52 37 -29 16 -55 31 -58 35 -3 4 -25 17 -50 31 -25 13 -46 27 -48 32 -2 4
-10 7 -18 7 -8 0 -14 5 -14 10 0 6 -8 10 -18 10 -10 0 -24 9 -32 20 -8 11 -19
20 -25 20 -5 0 -22 10 -37 23 -55 44 -115 87 -124 87 -5 0 -16 9 -24 20 -8 11
-21 20 -29 20 -7 0 -21 8 -30 18 -9 10 -32 26 -51 36 -19 9 -55 30 -80 46 -25
16 -51 29 -57 29 -7 1 -13 5 -13 9 0 5 -16 14 -35 22 -19 8 -35 17 -35 22 0 4
-9 8 -20 8 -11 0 -20 3 -20 8 0 4 -21 18 -47 32 -27 13 -50 27 -53 30 -3 3
-32 19 -65 35 -33 16 -61 33 -63 37 -2 4 -12 8 -23 8 -10 0 -19 5 -19 10 0 6
-9 10 -20 10 -11 0 -20 5 -20 10 0 6 -9 10 -20 10 -11 0 -20 5 -20 10 0 6 -11
10 -25 10 -14 0 -25 5 -25 10 0 6 -9 10 -20 10 -11 0 -20 5 -20 10 0 6 -9 10
-20 10 -11 0 -20 5 -20 10 0 6 -7 10 -16 10 -8 0 -49 16 -91 35 -42 19 -80 35
-85 35 -5 0 -28 9 -50 20 -23 11 -50 20 -60 20 -10 0 -18 5 -18 10 0 6 -9 10
-20 10 -11 0 -20 5 -20 10 0 6 -9 10 -20 10 -11 0 -28 4 -38 9 -40 21 -212 85
-297 111 -22 7 -48 16 -57 21 -10 5 -29 9 -43 9 -14 0 -25 5 -25 10 0 6 -11
10 -24 10 -14 0 -28 5 -31 10 -3 6 -22 10 -41 10 -19 0 -34 5 -34 10 0 6 -8
10 -17 10 -10 0 -38 8 -63 16 -25 9 -61 20 -80 24 -44 10 -185 48 -226 60 -17
6 -40 10 -52 10 -11 0 -24 5 -27 10 -3 6 -24 10 -46 10 -21 0 -39 5 -39 10 0
6 -18 10 -39 10 -22 0 -43 5 -46 10 -3 6 -28 10 -56 10 -27 0 -49 5 -49 10 0
6 -18 10 -39 10 -22 0 -43 5 -46 10 -3 6 -20 10 -37 10 -18 0 -45 4 -62 10
-32 9 -306 65 -406 82 -30 5 -80 13 -110 19 -30 6 -77 13 -105 15 -27 3 -54
10 -60 15 -5 5 -40 9 -77 9 -37 0 -68 4 -68 9 0 5 -35 12 -77 15 -77 5 -174
15 -363 36 -223 24 -343 30 -660 35 -184 3 -339 3 -345 0z m1033 -910 c70 -9
154 -22 187 -30 57 -14 113 -24 255 -46 102 -16 161 -27 215 -39 28 -6 68 -14
90 -16 22 -3 49 -9 60 -14 11 -5 40 -11 65 -14 78 -9 120 -18 126 -27 3 -5 16
-9 29 -9 14 0 44 -4 67 -10 24 -5 86 -17 138 -25 52 -9 129 -28 170 -42 70
-24 118 -36 198 -50 17 -3 32 -9 32 -14 0 -5 11 -9 25 -9 14 0 25 -4 25 -10 0
-5 14 -10 30 -10 17 0 30 -4 30 -10 0 -5 14 -10 32 -10 17 0 45 -4 62 -10 17
-5 85 -26 151 -46 66 -21 124 -41 129 -46 6 -4 18 -8 28 -8 10 0 18 -4 18 -10
0 -5 9 -10 20 -10 11 0 20 -4 20 -10 0 -5 14 -10 30 -10 17 0 30 -4 30 -10 0
-5 16 -10 35 -10 19 0 35 -4 35 -10 0 -5 6 -10 14 -10 8 0 62 -20 122 -45 59
-25 113 -45 120 -45 8 0 14 -4 14 -10 0 -5 7 -10 15 -10 8 0 23 -4 33 -9 9 -5
32 -16 50 -23 17 -7 32 -16 32 -20 0 -5 6 -8 14 -8 14 0 96 -39 106 -51 3 -3
23 -13 45 -24 22 -10 76 -35 119 -57 44 -21 85 -38 93 -38 7 0 13 -4 13 -10 0
-5 11 -10 25 -10 14 0 25 -4 25 -10 0 -5 9 -10 19 -10 11 0 21 -4 23 -8 2 -4
30 -21 63 -37 33 -15 62 -32 65 -35 8 -11 92 -50 107 -50 7 0 13 -4 13 -10 0
-5 9 -10 20 -10 11 0 20 -4 20 -10 0 -5 7 -10 15 -10 8 0 15 -4 15 -10 0 -5 9
-10 19 -10 11 0 21 -4 23 -8 5 -12 144 -102 157 -102 6 0 11 -4 11 -8 0 -4 22
-19 50 -33 27 -13 50 -27 50 -31 0 -5 7 -8 15 -8 8 0 15 -4 15 -10 0 -5 6 -10
13 -10 6 0 26 -11 42 -25 17 -13 35 -28 40 -33 6 -5 17 -13 26 -18 17 -9 71
-52 118 -91 14 -13 30 -23 35 -23 5 0 16 -8 25 -18 22 -24 158 -132 166 -132
4 0 19 -12 33 -28 15 -15 43 -39 62 -54 19 -14 52 -41 72 -60 20 -18 51 -44
68 -57 18 -14 53 -45 78 -69 26 -24 69 -63 96 -86 62 -53 65 -55 226 -225 136
-144 196 -209 215 -233 50 -62 165 -198 185 -218 14 -14 53 -61 85 -105 33
-44 62 -82 65 -85 4 -3 22 -27 40 -55 19 -27 40 -56 47 -63 7 -7 13 -17 13
-22 0 -5 6 -15 13 -22 21 -22 107 -157 107 -168 0 -5 5 -10 10 -10 6 0 10 -5
10 -11 0 -6 15 -34 33 -62 57 -88 97 -157 97 -167 0 -6 4 -10 8 -10 5 0 14
-16 22 -35 8 -19 17 -35 21 -35 4 0 9 -8 12 -17 6 -18 38 -74 47 -83 10 -9
100 -172 100 -181 0 -5 5 -9 10 -9 6 0 10 -9 10 -20 0 -11 5 -20 10 -20 6 0
10 -7 10 -15 0 -8 5 -15 10 -15 6 0 10 -7 10 -15 0 -8 3 -15 8 -15 4 0 13 -15
21 -32 18 -40 100 -216 112 -240 5 -10 9 -25 9 -33 0 -8 5 -15 10 -15 6 0 10
-9 10 -20 0 -11 5 -20 10 -20 6 0 10 -11 10 -25 0 -14 5 -25 10 -25 6 0 10 -7
10 -15 0 -8 9 -34 19 -58 10 -23 31 -76 46 -117 26 -73 30 -84 54 -143 6 -15
11 -37 11 -47 0 -11 5 -20 10 -20 6 0 10 -13 10 -30 0 -16 5 -30 10 -30 6 0
10 -11 10 -25 0 -14 4 -33 9 -43 9 -17 14 -34 45 -157 34 -137 68 -327 78
-440 5 -66 14 -167 20 -225 14 -157 21 -621 9 -645 -6 -11 -12 -45 -15 -75
-13 -172 -62 -564 -87 -710 -5 -30 -12 -73 -15 -95 -4 -22 -10 -44 -15 -49 -5
-6 -9 -25 -9 -42 0 -18 -4 -36 -10 -39 -5 -3 -10 -19 -10 -36 0 -16 -4 -29
-10 -29 -5 0 -10 -18 -10 -40 0 -22 -4 -40 -10 -40 -5 0 -10 -12 -10 -26 0
-15 -9 -54 -20 -88 -11 -33 -31 -95 -44 -136 -13 -41 -30 -89 -36 -105 -7 -17
-17 -41 -22 -55 -6 -14 -14 -33 -19 -42 -5 -10 -9 -27 -9 -38 0 -11 -4 -20
-10 -20 -5 0 -10 -9 -10 -20 0 -11 -4 -20 -10 -20 -5 0 -10 -11 -10 -25 0 -14
-4 -25 -10 -25 -5 0 -10 -6 -10 -14 0 -14 -36 -100 -71 -169 -10 -22 -19 -45
-19 -53 0 -8 -4 -14 -10 -14 -5 0 -10 -9 -10 -20 0 -11 -4 -20 -10 -20 -5 0
-10 -9 -10 -20 0 -11 -4 -20 -10 -20 -5 0 -10 -9 -10 -20 0 -11 -4 -20 -10
-20 -5 0 -10 -9 -10 -19 0 -11 -3 -21 -7 -23 -5 -1 -20 -28 -35 -58 -43 -88
-92 -175 -100 -178 -5 -2 -8 -12 -8 -23 0 -10 -4 -19 -8 -19 -5 0 -14 -16 -22
-35 -8 -19 -17 -35 -21 -35 -4 0 -9 -8 -12 -18 -5 -16 -31 -61 -50 -87 -35
-49 -77 -116 -77 -125 0 -5 -4 -10 -10 -10 -5 0 -10 -7 -10 -15 0 -8 -4 -15
-10 -15 -5 0 -10 -6 -10 -13 0 -7 -8 -22 -18 -33 -10 -10 -36 -46 -59 -79 -22
-33 -50 -71 -62 -84 -12 -13 -21 -28 -21 -32 0 -4 -11 -19 -25 -33 -14 -14
-25 -30 -25 -36 0 -5 -4 -10 -8 -10 -4 0 -15 -13 -25 -29 -9 -16 -29 -42 -44
-59 -16 -17 -41 -47 -58 -68 -16 -20 -35 -41 -40 -48 -6 -6 -18 -22 -27 -35
-17 -24 -115 -136 -155 -177 -13 -13 -23 -25 -23 -28 0 -20 -505 -519 -595
-588 -16 -13 -44 -36 -61 -53 -17 -16 -48 -43 -69 -60 -21 -16 -43 -35 -49
-40 -6 -6 -28 -21 -48 -35 -21 -14 -38 -28 -38 -32 0 -5 -6 -8 -13 -8 -7 0
-19 -9 -27 -20 -8 -11 -20 -20 -28 -20 -7 0 -24 -11 -38 -25 -14 -14 -29 -25
-34 -25 -5 0 -15 -6 -22 -13 -7 -7 -37 -28 -66 -46 -30 -19 -59 -39 -66 -45
-17 -16 -68 -46 -88 -53 -10 -3 -18 -9 -18 -14 0 -5 -6 -9 -14 -9 -8 0 -16 -3
-18 -7 -1 -5 -28 -21 -58 -37 -30 -16 -57 -32 -60 -35 -7 -9 -57 -37 -117 -67
-29 -15 -53 -30 -53 -35 0 -5 -9 -9 -20 -9 -11 0 -20 -4 -20 -10 0 -5 -6 -10
-13 -10 -7 0 -60 -25 -117 -55 -57 -30 -110 -55 -117 -55 -7 0 -13 -4 -13 -10
0 -5 -9 -10 -20 -10 -11 0 -20 -4 -20 -10 0 -5 -9 -10 -20 -10 -11 0 -20 -4
-20 -10 0 -5 -7 -10 -15 -10 -8 0 -23 -4 -33 -9 -29 -16 -103 -47 -177 -75
-38 -15 -77 -31 -85 -35 -8 -4 -36 -14 -62 -22 -27 -7 -48 -17 -48 -21 0 -4
-13 -8 -29 -8 -17 0 -33 -5 -36 -10 -3 -6 -17 -10 -30 -10 -13 0 -27 -4 -30
-10 -3 -5 -19 -10 -36 -10 -16 0 -29 -4 -29 -9 0 -5 -15 -11 -32 -14 -18 -2
-85 -18 -148 -34 -175 -46 -245 -61 -322 -70 -27 -3 -48 -9 -48 -14 0 -5 -24
-9 -54 -9 -30 0 -58 -4 -61 -10 -3 -5 -31 -10 -61 -10 -30 0 -54 -4 -54 -9 0
-5 -30 -11 -67 -15 -38 -3 -97 -10 -133 -15 -539 -76 -1434 -76 -2115 0 -44 5
-115 12 -157 15 -43 3 -78 10 -78 14 0 5 -30 11 -67 14 -172 14 -199 17 -218
26 -11 5 -47 11 -80 15 -33 3 -85 10 -115 14 -30 5 -84 14 -120 20 -65 10
-319 54 -415 73 -27 5 -68 11 -90 15 -22 3 -44 9 -50 14 -5 5 -28 9 -51 9 -56
0 -73 20 -48 57 10 16 22 33 28 39 23 24 46 54 46 59 0 3 15 21 33 39 17 19
50 60 72 92 22 31 50 68 63 80 12 13 22 28 22 34 0 5 5 10 10 10 6 0 10 5 10
11 0 7 8 19 18 28 9 9 31 34 47 56 16 22 35 46 42 53 7 7 13 17 13 21 0 5 16
26 35 47 19 21 35 41 35 46 0 8 11 22 62 81 15 18 28 35 28 38 0 3 8 15 18 27
9 11 26 33 37 48 11 15 26 33 33 40 6 7 12 17 12 23 0 6 5 11 10 11 6 0 10 5
10 10 0 6 10 22 23 35 12 13 40 49 62 81 22 31 50 68 63 80 12 13 22 28 22 35
0 6 8 19 18 28 9 9 44 52 77 96 32 44 67 89 77 99 10 11 18 25 18 31 0 6 9 17
20 25 11 8 20 20 20 26 0 7 4 14 8 16 5 2 23 24 40 50 18 25 38 52 44 60 7 7
24 30 38 50 14 21 28 38 33 38 4 0 7 7 7 15 0 8 4 15 8 15 5 0 14 11 20 25 7
14 21 36 32 48 11 12 42 51 68 87 25 36 50 67 54 68 5 2 8 11 8 19 0 9 8 23
18 32 10 9 38 45 61 80 67 98 108 132 207 170 80 31 212 88 256 112 10 5 25 9
33 9 8 0 15 5 15 10 0 6 9 10 20 10 11 0 20 5 20 10 0 6 9 10 20 10 11 0 20 5
20 10 0 6 6 10 13 10 8 0 51 20 96 45 46 24 96 50 112 57 16 7 29 16 29 20 0
5 9 8 20 8 11 0 20 5 20 10 0 6 7 10 15 10 8 0 15 5 15 10 0 6 9 10 20 10 11
0 20 5 20 10 0 6 4 10 9 10 9 0 118 63 138 80 7 5 24 15 38 22 14 6 25 15 25
20 0 4 7 8 15 8 8 0 15 5 15 10 0 6 6 10 13 10 7 0 22 8 33 19 11 10 31 24 44
31 13 7 29 17 34 22 6 5 40 30 76 56 36 26 74 55 84 64 11 10 24 18 29 18 5 0
17 8 26 18 9 9 38 35 66 57 27 22 63 52 79 68 16 15 33 27 38 27 5 0 23 15 41
33 18 17 55 50 82 72 82 66 506 497 570 579 33 42 70 89 83 104 34 40 122 165
122 174 0 4 11 18 25 32 14 14 25 32 25 41 0 8 5 15 10 15 6 0 10 7 10 15 0 8
4 15 9 15 5 0 11 8 14 18 6 17 37 72 47 82 3 3 18 32 34 65 16 33 37 76 47 96
11 20 19 44 19 53 0 9 5 16 10 16 6 0 10 7 10 15 0 8 4 23 9 33 96 189 130
558 71 772 -13 47 -27 86 -32 88 -4 2 -8 12 -8 23 0 10 -4 19 -10 19 -5 0 -10
9 -10 20 0 11 -4 20 -10 20 -5 0 -10 4 -10 10 0 18 -112 140 -129 140 -6 0
-11 5 -11 10 0 6 -7 10 -15 10 -8 0 -15 4 -15 8 0 8 -46 30 -130 63 -24 10
-80 14 -180 14 -135 0 -150 -2 -220 -29 -41 -15 -85 -30 -97 -33 -13 -3 -23
-9 -23 -14 0 -5 -9 -9 -20 -9 -11 0 -20 -4 -20 -10 0 -5 -7 -10 -15 -10 -8 0
-15 -4 -15 -10 0 -5 -9 -10 -20 -10 -11 0 -20 -4 -20 -9 0 -5 -9 -13 -20 -16
-11 -3 -26 -12 -32 -19 -7 -6 -31 -25 -53 -41 -101 -76 -310 -285 -410 -410
-22 -27 -47 -57 -55 -65 -9 -8 -27 -31 -40 -50 -24 -34 -35 -48 -72 -92 -10
-12 -18 -24 -18 -27 0 -3 -14 -22 -30 -41 -16 -19 -34 -40 -40 -47 -5 -7 -10
-17 -10 -23 0 -5 -3 -10 -8 -10 -4 0 -18 -18 -32 -40 -14 -22 -28 -40 -32 -40
-4 0 -10 -9 -13 -20 -3 -11 -12 -26 -19 -32 -7 -7 -29 -38 -49 -68 -20 -30
-46 -65 -57 -77 -11 -12 -20 -28 -20 -34 0 -6 -8 -19 -17 -28 -10 -9 -25 -28
-33 -42 -8 -15 -23 -37 -32 -50 -10 -13 -43 -62 -75 -109 -31 -47 -60 -86 -65
-88 -4 -2 -8 -9 -8 -15 0 -7 -9 -23 -20 -37 -33 -42 -110 -159 -110 -167 0 -5
-9 -15 -20 -23 -11 -8 -20 -20 -20 -28 0 -7 -8 -22 -18 -33 -11 -10 -25 -32
-33 -47 -8 -15 -20 -33 -26 -40 -7 -7 -13 -17 -13 -22 0 -5 -6 -15 -13 -22 -7
-7 -30 -41 -52 -75 -22 -35 -43 -63 -47 -63 -5 0 -8 -7 -8 -15 0 -9 -9 -26
-20 -38 -11 -12 -46 -60 -77 -107 -31 -47 -60 -86 -65 -88 -4 -2 -8 -11 -8
-21 0 -9 -9 -23 -20 -31 -11 -8 -20 -18 -20 -23 0 -8 -77 -124 -90 -137 -3 -3
-23 -33 -45 -67 -22 -35 -43 -63 -47 -63 -5 0 -8 -6 -8 -12 0 -7 -11 -26 -25
-42 -13 -16 -27 -37 -30 -47 -4 -11 -10 -19 -13 -19 -4 0 -16 -16 -26 -35 -11
-19 -23 -35 -28 -35 -4 0 -8 -7 -8 -15 0 -8 -4 -15 -10 -15 -5 0 -10 -6 -10
-13 0 -7 -9 -19 -20 -27 -11 -8 -20 -21 -20 -30 0 -9 -9 -22 -20 -30 -11 -8
-20 -20 -20 -26 0 -7 -3 -14 -7 -16 -5 -1 -21 -20 -36 -40 -15 -21 -35 -38
-43 -38 -7 0 -14 -4 -14 -10 0 -5 -16 -10 -35 -10 -19 0 -35 -4 -35 -10 0 -5
-22 -10 -49 -10 -28 0 -53 -4 -56 -10 -3 -5 -28 -10 -54 -10 -26 0 -51 -4 -56
-9 -6 -5 -35 -11 -65 -14 -30 -3 -116 -11 -190 -18 -214 -21 -418 -14 -625 22
-33 5 -80 12 -105 15 -25 3 -49 10 -55 15 -5 5 -24 9 -42 9 -18 0 -33 5 -33
10 0 6 -18 10 -40 10 -22 0 -40 5 -40 10 0 6 -8 10 -17 10 -40 0 -315 112
-375 152 -14 10 -31 18 -37 18 -6 0 -11 3 -11 8 0 4 -15 14 -32 22 -31 13 -41
20 -71 46 -7 6 -19 15 -28 20 -57 33 -329 292 -329 313 0 5 -11 21 -25 35 -14
14 -25 30 -25 36 0 5 -3 10 -7 10 -5 0 -21 21 -38 48 -16 26 -32 49 -35 52
-11 10 -70 112 -70 121 0 5 -4 9 -10 9 -5 0 -10 9 -10 20 0 11 -4 20 -9 20 -9
0 -108 195 -131 260 -7 19 -17 39 -22 44 -4 6 -8 20 -8 33 0 13 -4 23 -10 23
-5 0 -10 14 -10 30 0 17 -4 30 -10 30 -5 0 -10 13 -10 29 0 17 -4 32 -9 35 -5
3 -11 20 -14 38 -3 18 -11 53 -17 78 -29 112 -52 403 -42 510 l7 65 45 8 c25
5 77 11 115 14 39 2 74 9 80 14 5 5 35 9 66 9 32 0 61 5 64 10 3 6 25 10 47
10 23 0 55 4 72 10 17 5 81 19 141 30 61 12 164 35 230 52 171 43 196 49 233
55 17 3 32 9 32 14 0 5 16 9 35 9 19 0 35 5 35 10 0 6 14 10 30 10 17 0 30 5
30 10 0 6 10 10 21 10 12 0 82 20 155 45 72 25 139 45 148 45 9 0 16 5 16 10
0 6 14 10 30 10 17 0 30 5 30 10 0 6 11 10 25 10 14 0 25 5 25 10 0 6 10 10
23 10 13 0 27 4 33 8 5 5 29 15 54 22 25 8 47 17 50 20 5 5 74 32 138 54 17 6
32 14 32 18 0 5 8 8 18 8 9 0 44 14 77 30 33 17 67 30 77 30 10 0 18 5 18 10
0 6 9 10 20 10 11 0 20 3 20 8 0 4 15 13 33 21 80 35 262 127 265 134 2 4 12
7 23 7 10 0 19 5 19 10 0 6 9 10 20 10 11 0 20 3 20 8 0 4 15 13 33 21 17 8
43 22 57 31 14 9 50 30 80 46 30 16 57 31 60 34 3 3 19 12 35 20 17 8 39 23
49 33 11 9 26 17 33 17 7 0 13 4 13 9 0 5 14 14 30 21 17 7 30 16 30 21 0 5 5
9 10 9 12 0 94 52 98 63 2 4 9 7 15 7 7 0 28 14 47 30 19 16 41 30 48 30 6 0
12 3 12 8 1 4 30 27 66 52 36 25 77 55 90 68 12 12 28 22 34 22 5 0 10 5 10
10 0 6 4 10 10 10 10 0 24 11 81 60 32 28 37 32 99 80 25 19 47 38 48 42 2 5
8 8 14 8 5 0 26 17 46 38 20 20 60 55 87 77 66 52 367 353 430 430 28 33 58
67 67 76 10 9 18 21 18 28 0 6 5 11 10 11 6 0 10 5 10 11 0 6 6 16 13 24 20
21 40 48 72 95 17 25 33 46 38 48 4 2 7 10 7 18 0 8 5 14 10 14 6 0 10 7 10
15 0 8 5 15 10 15 6 0 10 7 10 15 0 8 5 15 10 15 6 0 10 6 10 13 0 7 9 23 20
35 11 12 20 28 20 36 0 8 4 16 9 18 5 2 30 44 57 93 26 50 52 92 56 93 4 2 8
12 8 23 0 10 5 19 10 19 6 0 10 9 10 19 0 11 5 23 10 26 6 3 10 15 10 26 0 10
5 19 10 19 6 0 10 9 10 20 0 11 5 20 10 20 6 0 10 7 10 15 0 8 4 23 10 33 19
33 60 135 60 148 0 8 5 14 10 14 6 0 10 11 10 24 0 14 5 28 10 31 6 3 10 17
10 31 0 13 5 24 10 24 6 0 10 14 10 30 0 17 5 30 10 30 6 0 10 11 10 24 0 14
4 27 9 30 5 3 11 18 14 33 2 16 14 62 25 103 52 189 66 288 66 475 0 180 -5
219 -44 351 -23 76 -71 184 -82 184 -4 0 -8 9 -8 20 0 11 -4 20 -8 20 -4 0
-15 12 -24 28 -21 34 -154 172 -167 172 -5 0 -16 6 -23 13 -20 20 -106 67
-123 67 -8 0 -15 5 -15 10 0 6 -9 10 -20 10 -11 0 -20 5 -20 10 0 6 -13 10
-30 10 -16 0 -30 5 -30 10 0 6 -16 10 -35 10 -19 0 -35 4 -35 9 0 9 -20 13
-185 32 -133 15 -218 15 -350 1 -60 -7 -136 -15 -167 -18 -32 -3 -58 -10 -58
-15 0 -5 -22 -9 -50 -9 -27 0 -50 -4 -50 -10 0 -5 -14 -10 -30 -10 -17 0 -38
-4 -48 -9 -9 -5 -64 -24 -122 -41 -58 -18 -132 -44 -165 -57 -33 -14 -69 -29
-80 -33 -47 -17 -77 -31 -210 -96 -77 -37 -142 -70 -145 -73 -3 -4 -27 -17
-55 -31 -27 -14 -51 -28 -53 -32 -2 -5 -12 -8 -22 -8 -10 0 -20 -3 -22 -7 -3
-8 -81 -58 -158 -102 -25 -14 -54 -33 -64 -43 -11 -10 -26 -18 -33 -18 -7 0
-13 -4 -13 -10 0 -5 -7 -10 -15 -10 -8 0 -15 -4 -15 -10 0 -5 -6 -10 -12 -10
-7 0 -26 -11 -42 -25 -16 -14 -32 -25 -36 -25 -4 0 -18 -9 -31 -20 -13 -11
-28 -23 -34 -28 -5 -4 -32 -23 -60 -42 -27 -18 -57 -42 -66 -52 -9 -10 -21
-18 -26 -18 -5 0 -18 -8 -29 -18 -10 -9 -41 -35 -69 -57 -27 -22 -57 -48 -66
-57 -9 -10 -19 -18 -23 -18 -7 0 -32 -20 -84 -68 -21 -19 -57 -50 -81 -70
-119 -98 -571 -550 -688 -688 -23 -27 -60 -69 -82 -94 -23 -24 -41 -48 -41
-53 0 -5 -12 -21 -28 -35 -15 -15 -50 -54 -77 -87 -28 -32 -62 -72 -77 -89
-16 -16 -28 -33 -28 -38 0 -5 -10 -19 -22 -32 -13 -12 -32 -35 -43 -50 -11
-15 -32 -42 -47 -59 -15 -18 -28 -35 -28 -39 0 -4 -11 -18 -25 -32 -14 -14
-25 -30 -25 -36 0 -5 -4 -10 -8 -10 -4 0 -16 -13 -25 -30 -10 -16 -24 -35 -31
-43 -7 -7 -20 -26 -29 -42 -8 -17 -25 -40 -36 -52 -12 -12 -21 -27 -21 -33 0
-5 -4 -10 -10 -10 -5 0 -10 -7 -10 -15 0 -8 -4 -15 -10 -15 -5 0 -10 -7 -10
-15 0 -8 -4 -15 -9 -15 -5 0 -14 -13 -21 -30 -7 -16 -16 -30 -20 -30 -4 0 -13
-13 -20 -30 -7 -16 -15 -30 -19 -30 -4 0 -20 -25 -36 -55 -17 -30 -33 -55 -37
-55 -5 0 -8 -6 -8 -13 0 -7 -8 -22 -17 -33 -10 -10 -25 -32 -33 -49 -8 -16
-17 -32 -20 -35 -3 -3 -16 -25 -29 -50 -13 -25 -29 -52 -35 -60 -7 -8 -18 -28
-26 -45 -8 -16 -17 -32 -20 -35 -21 -21 -220 -420 -220 -442 0 -10 -4 -18 -10
-18 -5 0 -10 -9 -10 -20 0 -11 -4 -20 -10 -20 -5 0 -10 -11 -10 -25 0 -14 -4
-25 -10 -25 -5 0 -10 -7 -10 -15 0 -8 -9 -34 -19 -58 -28 -61 -91 -242 -91
-260 0 -9 -4 -19 -10 -22 -5 -3 -10 -17 -10 -30 0 -13 -4 -27 -10 -30 -5 -3
-10 -19 -10 -36 0 -16 -4 -29 -10 -29 -5 0 -10 -18 -10 -40 0 -22 -4 -40 -9
-40 -6 0 -11 -17 -13 -37 -5 -65 -14 -66 -428 -76 -810 -20 -1456 -9 -2585 42
-115 5 -325 15 -465 20 -140 6 -285 16 -322 21 -37 6 -101 10 -142 10 -41 0
-78 4 -81 10 -3 5 -1 27 5 49 9 34 25 103 62 271 5 25 12 64 15 88 3 23 9 42
14 42 5 0 9 17 9 38 0 21 4 42 9 47 5 6 11 28 14 50 8 61 26 127 82 310 21 66
40 135 42 153 3 17 9 32 14 32 5 0 9 11 9 24 0 14 5 28 10 31 6 3 10 17 10 31
0 13 4 24 8 24 5 0 15 23 22 50 7 28 17 50 22 50 4 0 8 7 8 15 0 8 4 23 9 33
5 9 20 44 34 77 14 33 35 81 46 107 11 26 26 65 33 87 7 23 16 41 20 41 5 0 8
9 8 20 0 11 5 20 10 20 6 0 10 9 10 19 0 11 5 23 10 26 6 3 10 15 10 26 0 10
5 19 10 19 6 0 10 6 10 14 0 7 29 75 65 150 36 75 65 141 65 146 0 6 5 10 10
10 6 0 10 7 10 15 0 9 34 82 76 163 42 81 82 157 88 169 6 13 14 23 19 23 4 0
7 7 7 15 0 8 9 30 19 48 11 19 25 45 33 58 7 13 16 26 19 29 3 3 16 25 30 50
42 75 53 93 72 114 9 11 17 26 17 33 0 7 5 13 10 13 6 0 10 9 10 19 0 11 4 21
9 23 4 2 34 44 67 93 32 50 62 91 66 93 5 2 8 10 8 18 0 8 5 14 10 14 6 0 10
7 10 15 0 8 5 15 10 15 6 0 10 7 10 15 0 8 4 15 8 15 5 0 15 12 23 28 8 15 20
33 27 40 6 8 26 35 44 60 17 26 35 49 40 50 4 2 8 8 8 14 0 6 8 18 18 27 11 9
25 27 32 40 7 13 21 34 31 45 11 12 41 50 66 86 26 36 55 72 65 81 10 9 18 21
18 28 0 6 5 11 10 11 6 0 10 5 10 10 0 6 10 21 23 34 12 13 36 40 52 61 17 20
49 56 73 81 23 24 42 46 42 49 0 3 24 29 53 59 28 29 62 64 73 77 12 13 56 56
99 94 42 39 99 90 126 115 26 25 69 63 95 85 25 22 65 57 88 78 22 20 44 37
47 37 3 0 19 12 35 26 16 14 45 37 64 52 19 15 44 35 54 45 11 9 24 17 28 17
5 0 19 10 32 23 13 12 49 40 81 62 31 22 68 50 81 63 13 12 29 22 36 22 8 0
20 9 28 20 8 11 20 20 27 20 7 0 13 5 13 10 0 6 7 10 15 10 8 0 15 5 15 10 0
6 5 10 10 10 6 0 23 11 37 25 15 13 40 29 55 36 15 6 28 15 28 20 0 5 6 9 13
9 7 0 23 9 35 20 12 11 26 20 32 20 5 0 10 5 10 10 0 6 7 10 15 10 9 0 25 9
37 20 12 11 28 20 35 20 7 0 13 5 13 10 0 6 4 10 9 10 5 0 44 20 85 45 42 25
81 45 86 45 6 0 10 4 10 8 0 5 16 14 35 22 19 8 35 17 35 22 0 4 7 8 15 8 8 0
15 5 15 10 0 6 7 10 15 10 8 0 15 5 15 10 0 6 9 10 20 10 11 0 20 3 20 8 0 4
34 25 75 47 41 22 75 43 75 48 0 4 9 7 20 7 11 0 20 5 20 10 0 6 9 10 20 10
11 0 20 5 20 10 0 6 9 10 19 10 11 0 21 3 23 8 3 7 186 98 266 133 17 8 32 17
32 21 0 5 7 8 15 8 8 0 23 4 33 9 39 21 177 83 259 117 120 49 155 64 175 75
10 5 27 9 37 9 11 0 23 5 26 10 3 6 15 10 26 10 10 0 19 5 19 10 0 6 11 10 25
10 14 0 33 4 43 10 29 16 349 120 370 120 12 0 24 5 27 10 3 6 19 10 36 10 16
0 29 4 29 9 0 5 15 11 33 14 54 9 91 18 112 27 11 5 34 11 50 15 17 3 46 10
65 15 110 27 212 51 260 60 30 6 71 16 91 21 20 5 48 9 62 9 14 0 28 4 31 9 3
5 23 11 43 15 21 3 56 8 78 11 22 4 49 10 60 15 19 8 54 15 143 26 23 4 42 10
42 14 0 4 21 10 48 13 26 3 70 10 97 15 204 40 538 71 767 73 73 0 156 4 183
9 97 15 677 11 813 -5z m547 -2315 c3 -5 19 -10 35 -10 66 0 250 -100 250
-137 0 -5 9 -15 20 -23 11 -8 20 -22 20 -32 0 -10 5 -18 10 -18 6 0 10 -8 10
-18 0 -10 4 -22 9 -27 18 -18 41 -164 41 -252 -1 -84 -26 -253 -50 -338 -6
-22 -14 -52 -17 -68 -3 -15 -9 -30 -14 -33 -5 -3 -9 -18 -9 -35 0 -16 -4 -29
-10 -29 -5 0 -10 -13 -10 -30 0 -16 -4 -30 -10 -30 -5 0 -10 -11 -10 -25 0
-14 -4 -25 -8 -25 -4 0 -14 -21 -22 -47 -13 -47 -42 -118 -81 -197 -10 -22
-19 -46 -19 -53 0 -7 -4 -13 -10 -13 -5 0 -10 -9 -10 -19 0 -11 -3 -21 -8 -23
-4 -2 -23 -34 -42 -73 -43 -85 -122 -219 -132 -223 -5 -2 -8 -9 -8 -16 0 -7
-8 -21 -17 -32 -10 -10 -24 -31 -32 -46 -8 -15 -21 -36 -30 -45 -9 -10 -28
-36 -43 -58 -27 -40 -46 -63 -113 -140 -131 -151 -227 -251 -309 -320 -26 -22
-67 -59 -92 -82 -24 -24 -48 -43 -53 -43 -5 0 -11 -3 -13 -7 -2 -7 -78 -71
-126 -108 -7 -5 -24 -20 -37 -32 -13 -13 -29 -23 -35 -23 -5 0 -10 -4 -10 -10
0 -5 -5 -10 -11 -10 -6 0 -16 -6 -23 -12 -7 -7 -25 -22 -40 -33 -16 -11 -33
-25 -40 -30 -6 -6 -47 -35 -91 -65 -44 -30 -81 -58 -83 -62 -2 -4 -11 -8 -21
-8 -9 0 -23 -9 -31 -20 -8 -11 -17 -20 -21 -20 -6 0 -114 -62 -134 -77 -23
-17 -71 -45 -87 -50 -10 -3 -18 -8 -18 -12 0 -4 -16 -13 -35 -21 -19 -8 -35
-17 -35 -22 0 -4 -9 -8 -19 -8 -11 0 -21 -4 -23 -8 -4 -11 -139 -82 -155 -82
-7 0 -13 -4 -13 -8 0 -5 -34 -24 -75 -43 -41 -19 -75 -37 -75 -41 0 -5 -7 -8
-15 -8 -8 0 -23 -4 -33 -10 -40 -23 -216 -100 -228 -100 -8 0 -14 -4 -14 -10
0 -5 -9 -10 -19 -10 -11 0 -23 -4 -26 -10 -3 -5 -15 -10 -26 -10 -10 0 -19 -4
-19 -10 0 -5 -11 -10 -24 -10 -14 0 -28 -4 -31 -10 -3 -5 -15 -10 -25 -10 -10
0 -20 -3 -22 -8 -3 -6 -61 -29 -225 -87 -35 -12 -66 -24 -70 -28 -3 -4 -19 -7
-35 -7 -15 0 -28 -4 -28 -10 0 -5 -11 -10 -24 -10 -14 0 -28 -4 -31 -10 -3 -5
-19 -10 -36 -10 -16 0 -29 -4 -29 -10 0 -5 -8 -10 -17 -10 -9 0 -30 -4 -47
-10 -17 -5 -58 -18 -91 -29 -52 -16 -115 -33 -310 -82 -22 -6 -54 -15 -71 -20
-17 -5 -42 -9 -57 -9 -15 0 -27 -4 -27 -10 0 -5 -22 -10 -50 -10 -27 0 -50 -4
-50 -10 0 -5 -20 -10 -45 -10 -25 0 -45 -4 -45 -9 0 -5 -24 -12 -52 -14 -29
-3 -80 -10 -113 -16 -71 -12 -257 -40 -267 -41 -14 0 -9 41 13 109 30 93 67
197 90 255 10 27 19 55 19 62 0 8 5 14 10 14 6 0 10 9 10 20 0 11 5 20 10 20
6 0 10 14 10 30 0 17 5 30 10 30 6 0 10 9 10 20 0 11 5 20 10 20 6 0 10 5 10
10 0 17 131 285 141 288 5 2 9 12 9 23 0 10 5 19 10 19 6 0 10 9 10 20 0 11 5
20 10 20 6 0 10 9 10 20 0 11 5 20 10 20 6 0 10 7 10 15 0 8 5 15 10 15 6 0
10 9 10 20 0 11 4 20 8 20 4 0 21 27 37 60 17 33 33 60 38 60 4 0 7 7 7 15 0
8 5 15 10 15 6 0 10 7 10 15 0 9 9 25 20 37 11 12 20 28 20 35 0 7 5 13 10 13
6 0 10 5 10 10 0 10 74 126 100 157 6 7 15 24 22 38 6 14 15 25 20 25 4 0 8 7
8 15 0 8 4 15 8 15 5 0 15 12 23 28 13 25 20 35 44 65 6 7 26 35 44 62 19 28
43 57 53 66 10 9 18 21 18 26 0 5 8 18 18 29 9 10 44 55 77 99 33 44 72 92 88
107 15 14 27 31 27 38 0 7 12 24 28 38 15 15 40 45 57 67 16 22 43 54 60 71
16 17 44 49 62 70 17 22 48 57 68 79 20 22 67 73 103 114 100 111 505 511 517
511 3 0 20 15 38 33 18 17 50 46 72 62 72 56 100 80 103 88 2 4 8 7 13 7 5 0
25 16 45 35 19 19 38 35 43 35 4 0 21 11 37 25 16 15 41 33 57 43 15 9 27 20
27 24 0 4 6 8 13 8 7 0 22 8 33 18 10 10 57 44 104 75 47 31 90 61 97 67 7 6
24 15 38 22 14 6 25 15 25 20 0 4 7 8 15 8 8 0 15 5 15 10 0 6 9 10 20 10 11
0 20 4 20 9 0 5 14 14 30 21 17 7 30 16 30 21 0 5 4 9 9 9 5 0 37 16 71 35 34
19 68 35 76 35 8 0 14 4 14 8 0 9 89 52 108 52 7 0 12 5 12 10 0 6 9 10 19 10
11 0 23 5 26 10 3 6 15 10 26 10 10 0 19 5 19 10 0 6 7 10 15 10 8 0 23 4 33
9 9 6 49 21 87 35 65 23 93 31 200 57 22 6 54 15 71 20 17 5 51 9 77 9 25 0
49 5 52 10 4 6 78 10 190 10 112 0 186 -4 190 -10z m1505 -3845 c68 -35 93
-107 93 -270 -1 -124 -13 -184 -63 -320 -12 -33 -24 -70 -27 -82 -3 -13 -9
-23 -14 -23 -5 0 -9 -9 -9 -20 0 -11 -4 -20 -10 -20 -5 0 -10 -9 -10 -20 0
-11 -4 -20 -8 -20 -5 0 -14 -16 -22 -35 -8 -19 -17 -35 -22 -35 -4 0 -8 -9 -8
-19 0 -11 -3 -21 -8 -23 -4 -1 -26 -34 -49 -73 -23 -38 -53 -83 -67 -100 -14
-16 -26 -34 -26 -38 0 -5 -6 -14 -12 -22 -15 -15 -29 -33 -78 -95 -63 -81 -74
-92 -211 -229 -143 -143 -226 -221 -235 -221 -3 0 -22 -17 -42 -38 -20 -21
-55 -51 -77 -67 -22 -17 -52 -42 -67 -57 -14 -16 -30 -28 -35 -28 -5 0 -25
-15 -45 -32 -19 -18 -61 -51 -93 -73 -31 -22 -67 -50 -80 -62 -13 -13 -28 -23
-32 -23 -4 0 -21 -11 -37 -25 -16 -13 -52 -39 -80 -57 -28 -18 -53 -35 -56
-38 -3 -4 -25 -17 -50 -31 -25 -13 -46 -27 -48 -31 -2 -5 -10 -8 -18 -8 -8 0
-14 -4 -14 -10 0 -5 -9 -10 -20 -10 -11 0 -20 -4 -20 -8 0 -8 -30 -26 -135
-81 -27 -14 -51 -29 -53 -33 -2 -5 -12 -8 -23 -8 -10 0 -19 -4 -19 -10 0 -5
-9 -10 -20 -10 -11 0 -20 -4 -20 -10 0 -5 -9 -10 -20 -10 -11 0 -20 2 -20 5 0
12 24 55 32 55 4 0 8 7 8 15 0 8 5 15 10 15 6 0 10 6 10 13 0 7 9 23 20 35 11
12 20 26 20 32 0 6 8 20 18 31 11 10 34 46 53 79 19 34 42 70 51 81 10 12 20
30 23 40 4 11 11 19 16 19 5 0 9 7 9 15 0 8 4 15 9 15 5 0 11 8 14 18 5 16 33
64 50 87 4 5 28 42 52 80 25 39 49 75 55 82 5 7 10 18 10 25 0 8 9 20 20 28
11 8 20 22 20 32 0 10 5 18 10 18 6 0 10 7 10 15 0 8 3 15 8 15 4 0 16 18 26
40 11 22 22 40 26 40 3 0 17 22 31 50 13 27 27 50 32 50 4 0 7 7 7 15 0 8 5
15 10 15 6 0 10 7 10 15 0 8 3 15 8 15 4 0 14 15 22 33 7 17 18 37 22 42 13
15 118 186 118 191 0 3 9 14 20 26 11 12 20 28 20 35 0 7 5 13 10 13 6 0 10 4
10 9 0 9 58 110 70 121 13 13 60 91 60 100 0 5 4 10 8 10 5 0 15 12 23 28 8
15 22 36 32 46 9 11 17 25 17 32 0 7 4 14 8 16 5 2 27 30 49 63 22 33 50 71
62 84 12 13 21 28 21 32 0 4 10 18 23 31 12 13 29 32 37 44 46 65 241 274 256
274 4 0 14 8 23 18 9 9 28 23 44 31 15 8 27 18 27 23 0 4 6 8 13 8 8 0 28 7
45 15 66 33 138 37 192 10z m-5862 -5560 c72 -4 132 -11 132 -16 0 -4 30 -10
68 -13 108 -8 166 -17 177 -27 5 -5 26 -9 47 -9 20 0 47 -4 60 -9 13 -5 67
-19 121 -31 80 -18 97 -25 97 -40 0 -33 -434 -474 -590 -600 -24 -19 -49 -41
-56 -47 -7 -7 -16 -13 -20 -13 -3 0 -14 -8 -23 -18 -21 -24 -207 -152 -221
-152 -5 0 -10 -4 -10 -10 0 -5 -7 -10 -15 -10 -8 0 -15 -4 -15 -10 0 -5 -9
-10 -19 -10 -11 0 -21 -4 -23 -8 -3 -10 -232 -122 -248 -122 -6 0 -19 -4 -30
-10 -11 -5 -29 -14 -40 -20 -11 -5 -29 -10 -40 -10 -11 0 -20 -4 -20 -10 0 -5
-18 -10 -40 -10 -22 0 -40 -4 -40 -9 0 -13 -84 -22 -264 -27 -104 -3 -163 -1
-170 6 -5 5 -22 10 -37 10 -15 0 -31 5 -34 10 -3 6 -15 10 -26 10 -10 0 -19 5
-19 10 0 6 -7 10 -15 10 -21 0 -115 92 -115 113 0 9 -4 17 -10 17 -5 0 -10 14
-10 30 0 17 -4 30 -10 30 -6 0 -10 48 -10 125 0 77 4 125 10 125 6 0 10 15 10
34 0 19 5 38 10 41 6 3 10 15 10 25 0 24 90 200 101 200 5 0 9 7 9 15 0 20
174 195 194 195 9 0 16 4 16 8 0 5 12 15 28 23 15 8 29 16 32 20 10 10 155 75
200 89 25 7 49 17 55 22 5 4 21 8 36 8 15 0 31 5 34 10 3 6 21 10 40 10 19 0
37 5 40 10 3 6 28 10 55 10 27 0 52 5 55 10 3 6 39 10 78 11 40 0 90 4 112 8
46 9 152 8 343 -4z"/>
</g>
</svg>
